P3
20 20
255
1 1 1 1 1 1 1 1 1 1 1 1 1 1 1 1 1 1 1 1 1 1 1 1 1 1 1 1 1 1 1 1 1 1 1 1 1 1 1 1 1 1 1 1 1 1 1 1 1 1 1 1 1 1 1 1 1 1 1 1 
1 1 1 1 1 1 1 1 1 1 1 1 1 1 1 1 1 1 1 1 1 1 1 1 1 1 1 1 1 1 1 1 1 1 1 1 1 1 1 1 1 1 1 1 1 1 1 1 1 1 1 1 1 1 1 1 1 1 1 1 
1 1 1 1 1 1 1 1 1 1 1 1 1 1 1 1 1 1 1 1 1 1 1 1 222 44 148 222 44 148 222 44 148 222 44 148 222 44 148 1 1 1 1 1 1 1 1 1 1 1 1 1 1 1 1 1 1 1 1 1 
1 1 1 1 1 1 1 1 1 1 1 1 1 1 1 1 1 1 1 1 1 222 44 148 222 44 148 222 44 148 222 44 148 222 44 148 222 44 148 222 44 148 222 44 148 1 1 1 1 1 1 1 1 1 1 1 1 1 1 1 
1 1 1 1 1 1 1 1 1 1 1 1 1 1 1 1 1 1 222 44 148 222 44 148 222 44 148 222 44 148 222 44 148 222 44 148 222 44 148 222 44 148 222 44 148 1 1 1 1 1 1 1 1 1 1 1 1 1 1 1 
1 1 1 1 1 1 1 1 1 1 1 1 1 1 1 222 44 148 222 44 148 222 44 148 136 90 166 252 207 214 252 207 214 252 207 214 227 100 176 222 44 148 222 44 148 1 1 1 1 1 1 1 1 1 1 1 1 1 1 1 
1 1 1 1 1 1 1 1 1 1 1 1 1 1 1 222 44 148 136 90 166 111 49 152 252 207 214 252 207 214 252 207 214 252 207 214 111 49 152 136 90 166 222 44 148 1 1 1 1 1 1 1 1 1 1 1 1 1 1 1 
1 1 1 1 1 1 1 1 1 1 1 1 222 44 148 222 44 148 252 207 214 111 49 152 252 207 214 252 207 214 252 207 214 252 207 214 111 49 152 252 207 214 222 44 148 1 1 1 1 1 1 1 1 1 1 1 1 1 1 1 
1 1 1 1 1 1 1 1 1 1 1 1 222 44 148 222 44 148 252 207 214 252 207 214 252 207 214 252 207 214 252 207 214 252 207 214 252 207 214 252 207 214 222 44 148 1 1 1 1 1 1 1 1 1 1 1 1 1 1 1 
1 1 1 1 1 1 1 1 1 222 44 148 1 1 1 111 49 152 252 207 214 252 207 214 252 207 214 252 207 214 252 207 214 252 207 214 252 207 214 252 207 214 111 49 152 1 1 1 1 1 1 1 1 1 1 1 1 1 1 1 
1 1 1 1 1 1 1 1 1 1 1 1 1 1 1 222 44 148 1 1 1 1 1 1 1 1 1 184 145 152 184 145 152 1 1 1 1 1 1 1 1 1 222 44 148 1 1 1 1 1 1 1 1 1 1 1 1 1 1 1 
1 1 1 1 1 1 1 1 1 1 1 1 222 44 148 222 44 148 1 1 1 1 1 1 184 145 152 77 109 243 77 109 243 252 207 214 1 1 1 1 1 1 222 44 148 222 44 148 1 1 1 1 1 1 1 1 1 1 1 1 
1 1 1 1 1 1 1 1 1 1 1 1 222 44 148 222 44 148 1 1 1 1 1 1 77 109 243 77 109 243 77 109 243 77 109 243 252 207 214 1 1 1 222 44 148 222 44 148 1 1 1 1 1 1 1 1 1 1 1 1 
1 1 1 1 1 1 1 1 1 222 44 148 1 1 1 1 1 1 1 1 1 1 1 1 77 109 243 77 109 243 77 109 243 77 109 243 252 207 214 1 1 1 1 1 1 1 1 1 222 44 148 1 1 1 1 1 1 1 1 1 
1 1 1 1 1 1 1 1 1 1 1 1 1 1 1 1 1 1 1 1 1 1 1 1 252 207 214 111 49 152 111 49 152 252 207 214 252 207 214 1 1 1 1 1 1 1 1 1 1 1 1 1 1 1 1 1 1 1 1 1 
1 1 1 1 1 1 1 1 1 1 1 1 1 1 1 1 1 1 1 1 1 1 1 1 1 1 1 111 49 152 111 49 152 111 49 152 1 1 1 1 1 1 1 1 1 1 1 1 1 1 1 1 1 1 1 1 1 1 1 1 
1 1 1 1 1 1 1 1 1 1 1 1 1 1 1 1 1 1 1 1 1 1 1 1 1 1 1 1 1 1 47 54 153 111 49 152 1 1 1 1 1 1 1 1 1 1 1 1 1 1 1 1 1 1 1 1 1 1 1 1 
1 1 1 1 1 1 1 1 1 1 1 1 1 1 1 1 1 1 1 1 1 1 1 1 1 1 1 47 54 153 47 54 153 47 54 153 1 1 1 1 1 1 1 1 1 1 1 1 1 1 1 1 1 1 1 1 1 1 1 1 
1 1 1 1 1 1 1 1 1 1 1 1 1 1 1 1 1 1 1 1 1 1 1 1 1 1 1 1 1 1 1 1 1 1 1 1 1 1 1 1 1 1 1 1 1 1 1 1 1 1 1 1 1 1 1 1 1 1 1 1 
1 1 1 1 1 1 1 1 1 1 1 1 1 1 1 1 1 1 1 1 1 1 1 1 1 1 1 1 1 1 1 1 1 1 1 1 1 1 1 1 1 1 1 1 1 1 1 1 1 1 1 1 1 1 1 1 1 1 1 1 
