P3
18 20
255
1 1 1 1 1 1 1 1 1 1 1 1 1 1 1 1 1 1 1 1 1 1 1 1 0 0 0 0 0 0 1 1 1 1 1 1 1 1 1 1 1 1 1 1 1 1 1 1 1 1 1 1 1 1 
1 1 1 1 1 1 1 1 1 1 1 1 1 1 1 1 1 1 1 1 1 0 0 0 255 235 59 255 235 59 0 0 0 1 1 1 1 1 1 1 1 1 1 1 1 1 1 1 1 1 1 1 1 1 
1 1 1 1 1 1 1 1 1 1 1 1 1 1 1 1 1 1 0 0 0 0 0 0 255 235 59 255 235 59 0 0 0 0 0 0 1 1 1 1 1 1 1 1 1 1 1 1 1 1 1 1 1 1 
1 1 1 1 1 1 1 1 1 1 1 1 1 1 1 0 0 0 255 196 46 255 196 46 255 235 59 255 235 59 255 196 46 255 196 46 0 0 0 1 1 1 1 1 1 1 1 1 1 1 1 1 1 1 
1 1 1 1 1 1 1 1 1 1 1 1 1 1 1 0 0 0 255 196 46 255 196 46 255 235 59 255 235 59 255 196 46 255 196 46 0 0 0 1 1 1 1 1 1 1 1 1 1 1 1 1 1 1 
1 1 1 1 1 1 1 1 1 1 1 1 1 1 1 0 0 0 255 196 46 255 196 46 255 235 59 255 235 59 255 196 46 255 196 46 0 0 0 1 1 1 1 1 1 1 1 1 1 1 1 1 1 1 
1 1 1 1 1 1 1 1 1 1 1 1 0 0 0 255 140 0 255 196 46 255 196 46 255 235 59 255 235 59 255 196 46 255 196 46 255 140 0 0 0 0 1 1 1 1 1 1 1 1 1 1 1 1 
1 1 1 1 1 1 1 1 1 1 1 1 0 0 0 255 140 0 255 196 46 255 196 46 255 235 59 255 235 59 255 196 46 255 196 46 255 140 0 0 0 0 1 1 1 1 1 1 1 1 1 1 1 1 
1 1 1 1 1 1 1 1 1 0 0 0 0 0 0 255 140 0 255 196 46 255 196 46 255 235 59 255 235 59 255 196 46 255 196 46 255 140 0 0 0 0 0 0 0 1 1 1 1 1 1 1 1 1 
1 1 1 1 1 1 0 0 0 255 140 0 255 140 0 255 140 0 255 193 7 255 193 7 255 193 7 255 193 7 255 193 7 255 193 7 255 140 0 255 140 0 255 140 0 0 0 0 1 1 1 1 1 1 
1 1 1 0 0 0 0 0 0 255 140 0 255 140 0 255 140 0 255 193 7 0 0 0 255 193 7 255 193 7 0 0 0 255 193 7 255 140 0 255 140 0 255 140 0 0 0 0 0 0 0 1 1 1 
0 0 0 255 98 0 255 98 0 255 106 0 255 106 0 255 140 0 255 140 0 255 140 0 255 193 7 255 193 7 255 140 0 255 140 0 255 140 0 255 106 0 255 106 0 255 98 0 255 98 0 0 0 0 
0 0 0 255 98 0 255 98 0 255 43 0 255 43 0 255 43 0 255 98 0 255 98 0 255 152 0 255 152 0 255 98 0 255 98 0 255 43 0 255 43 0 255 43 0 255 98 0 255 98 0 0 0 0 
0 0 0 255 98 0 255 98 0 255 43 0 255 43 0 255 43 0 255 98 0 255 98 0 255 152 0 255 152 0 255 98 0 255 98 0 255 43 0 255 43 0 255 43 0 255 98 0 255 98 0 0 0 0 
1 1 1 0 0 0 0 0 0 255 0 0 255 0 0 255 43 0 255 43 0 255 43 0 255 98 0 255 98 0 255 43 0 255 43 0 255 43 0 255 0 0 255 0 0 0 0 0 0 0 0 1 1 1 
1 1 1 1 1 1 0 0 0 255 0 0 255 0 0 255 43 0 255 43 0 255 43 0 255 98 0 255 98 0 255 43 0 255 43 0 255 43 0 255 0 0 255 0 0 0 0 0 1 1 1 1 1 1 
1 1 1 1 1 1 0 0 0 255 0 0 255 0 0 255 0 0 255 43 0 255 43 0 255 43 0 255 43 0 255 43 0 255 43 0 255 0 0 255 0 0 255 0 0 0 0 0 1 1 1 1 1 1 
1 1 1 1 1 1 1 1 1 0 0 0 0 0 0 0 0 0 255 0 0 255 0 0 255 0 0 255 0 0 255 0 0 255 0 0 0 0 0 0 0 0 0 0 0 1 1 1 1 1 1 1 1 1 
1 1 1 1 1 1 1 1 1 1 1 1 1 1 1 0 0 0 255 0 0 255 0 0 255 0 0 255 0 0 255 0 0 255 0 0 0 0 0 1 1 1 1 1 1 1 1 1 1 1 1 1 1 1 
1 1 1 1 1 1 1 1 1 1 1 1 1 1 1 1 1 1 0 0 0 0 0 0 0 0 0 0 0 0 0 0 0 0 0 0 0 0 0 1 1 1 1 1 1 1 1 1 1 1 1 1 1 1 
