P3
18 23
255
1 1 1 1 1 1 1 1 1 255 120 0 1 1 1 1 1 1 1 1 1 1 1 1 1 1 1 1 1 1 1 1 1 1 1 1 1 1 1 1 1 1 1 1 1 1 1 1 1 1 1 1 1 1 
1 1 1 1 1 1 255 120 0 224 211 15 255 120 0 1 1 1 1 1 1 1 1 1 1 1 1 1 1 1 1 1 1 1 1 1 1 1 1 1 1 1 1 1 1 1 1 1 255 120 0 1 1 1 
1 1 1 1 1 1 255 120 0 224 211 15 255 120 0 1 1 1 1 1 1 1 1 1 1 1 1 1 1 1 1 1 1 1 1 1 1 1 1 1 1 1 1 1 1 255 120 0 255 120 0 1 1 1 
1 1 1 1 1 1 255 120 0 224 211 15 255 120 0 1 1 1 1 1 1 1 1 1 1 1 1 1 1 1 1 1 1 1 1 1 1 1 1 1 1 1 1 1 1 255 120 0 255 120 0 1 1 1 
1 1 1 255 120 0 224 211 15 224 211 15 224 211 15 255 120 0 1 1 1 1 1 1 1 1 1 1 1 1 1 1 1 1 1 1 1 1 1 1 1 1 255 120 0 224 211 15 224 211 15 255 120 0 
1 1 1 255 120 0 224 211 15 224 211 15 224 211 15 255 120 0 1 1 1 1 1 1 1 1 1 1 1 1 1 1 1 1 1 1 1 1 1 255 120 0 224 211 15 224 211 15 224 211 15 255 120 0 
1 1 1 255 120 0 224 211 15 224 211 15 224 211 15 255 120 0 1 1 1 1 1 1 1 1 1 1 1 1 1 1 1 1 1 1 255 120 0 224 211 15 224 211 15 224 211 15 224 211 15 255 120 0 
255 120 0 224 211 15 224 211 15 224 211 15 224 211 15 255 120 0 1 1 1 1 1 1 1 1 1 1 1 1 1 1 1 1 1 1 255 120 0 224 211 15 224 211 15 224 211 15 224 211 15 255 120 0 
255 120 0 224 211 15 224 211 15 224 211 15 224 211 15 224 211 15 255 120 0 1 1 1 1 1 1 1 1 1 1 1 1 255 120 0 224 211 15 224 211 15 224 211 15 224 211 15 224 211 15 255 120 0 
255 120 0 224 211 15 224 211 15 224 211 15 224 211 15 224 211 15 255 120 0 255 120 0 255 120 0 255 120 0 255 120 0 224 211 15 224 211 15 224 211 15 224 211 15 224 211 15 224 211 15 255 120 0 
255 120 0 224 211 15 224 211 15 224 211 15 224 211 15 255 255 255 255 255 255 255 255 255 255 255 255 255 255 255 255 255 255 255 255 255 224 211 15 224 211 15 224 211 15 224 211 15 224 211 15 255 120 0 
255 120 0 224 211 15 224 211 15 0 0 0 224 211 15 224 211 15 255 255 255 255 255 255 255 255 255 255 255 255 255 255 255 0 0 0 224 211 15 224 211 15 224 211 15 224 211 15 224 211 15 255 120 0 
255 120 0 224 175 15 224 211 15 0 0 0 224 211 15 224 211 15 224 211 15 224 211 15 224 211 15 224 211 15 224 211 15 0 0 0 224 211 15 224 211 15 224 211 15 224 211 15 224 175 15 255 120 0 
255 120 0 224 175 15 224 175 15 0 0 0 224 211 15 224 211 15 224 211 15 224 211 15 224 211 15 224 211 15 224 211 15 0 0 0 224 211 15 224 211 15 224 211 15 224 175 15 255 120 0 255 120 0 
255 120 0 224 175 15 224 175 15 0 0 0 224 175 15 224 211 15 224 211 15 224 211 15 224 211 15 224 211 15 224 211 15 0 0 0 224 211 15 224 211 15 224 175 15 255 120 0 255 120 0 224 70 15 
255 120 0 255 120 0 224 175 15 0 0 0 224 175 15 224 175 15 224 211 15 224 211 15 224 211 15 224 211 15 224 211 15 0 0 0 224 175 15 224 175 15 255 120 0 255 120 0 224 70 15 224 70 15 
255 120 0 255 120 0 255 120 0 224 175 15 224 175 15 224 175 15 224 175 15 224 175 15 224 175 15 224 175 15 224 175 15 224 175 15 255 120 0 255 120 0 255 120 0 224 70 15 224 70 15 224 70 15 
255 120 0 255 120 0 255 120 0 255 120 0 255 120 0 224 175 15 224 175 15 224 175 15 224 175 15 224 175 15 224 175 15 255 120 0 255 120 0 224 70 15 224 70 15 224 70 15 224 70 15 224 70 15 
255 120 0 255 120 0 255 120 0 255 120 0 255 120 0 255 120 0 255 120 0 255 120 0 255 120 0 255 120 0 255 120 0 255 120 0 224 70 15 224 70 15 224 70 15 224 70 15 224 70 15 1 1 1 
255 120 0 255 120 0 255 120 0 255 120 0 255 120 0 255 120 0 255 120 0 255 120 0 255 120 0 255 120 0 224 70 15 224 70 15 224 70 15 224 70 15 224 70 15 224 70 15 1 1 1 1 1 1 
1 1 1 255 120 0 255 120 0 255 120 0 255 120 0 255 120 0 255 120 0 255 120 0 255 120 0 224 70 15 224 70 15 224 70 15 224 70 15 224 70 15 224 70 15 1 1 1 1 1 1 1 1 1 
1 1 1 1 1 1 1 1 1 224 70 15 224 70 15 224 70 15 224 70 15 224 70 15 224 70 15 224 70 15 224 70 15 224 70 15 224 70 15 1 1 1 1 1 1 1 1 1 1 1 1 1 1 1 
1 1 1 1 1 1 1 1 1 1 1 1 1 1 1 224 70 15 224 70 15 224 70 15 224 70 15 224 70 15 224 70 15 1 1 1 1 1 1 1 1 1 1 1 1 1 1 1 1 1 1 1 1 1 
