P3
15 13
255
1 1 1 1 1 1 1 1 1 1 1 1 1 1 1 1 1 1 1 1 1 1 1 1 1 1 1 1 1 1 1 1 1 1 1 1 1 1 1 1 1 1 1 1 1 
1 1 1 1 1 1 1 1 1 0 0 0 0 0 0 0 0 0 1 1 1 1 1 1 1 1 1 0 0 0 0 0 0 0 0 0 1 1 1 1 1 1 1 1 1 
1 1 1 1 1 1 0 0 0 237 28 36 237 28 36 237 28 36 0 0 0 1 1 1 0 0 0 237 28 36 237 28 36 237 28 36 0 0 0 1 1 1 1 1 1 
1 1 1 0 0 0 237 28 36 237 28 36 237 28 36 237 28 36 237 28 36 0 0 0 237 28 36 237 28 36 237 28 36 237 28 36 237 28 36 0 0 0 1 1 1 
1 1 1 0 0 0 237 28 36 237 28 36 237 28 36 237 28 36 237 28 36 237 28 36 237 28 36 237 28 36 237 28 36 237 28 36 237 28 36 0 0 0 1 1 1 
1 1 1 0 0 0 237 28 36 237 28 36 237 28 36 237 28 36 237 28 36 237 28 36 237 28 36 237 28 36 237 28 36 237 28 36 237 28 36 0 0 0 1 1 1 
1 1 1 1 1 1 0 0 0 237 28 36 237 28 36 237 28 36 237 28 36 237 28 36 237 28 36 237 28 36 237 28 36 237 28 36 0 0 0 1 1 1 1 1 1 
1 1 1 1 1 1 1 1 1 0 0 0 237 28 36 237 28 36 237 28 36 237 28 36 237 28 36 237 28 36 237 28 36 0 0 0 1 1 1 1 1 1 1 1 1 
1 1 1 1 1 1 1 1 1 1 1 1 0 0 0 237 28 36 237 28 36 237 28 36 237 28 36 237 28 36 0 0 0 1 1 1 1 1 1 1 1 1 1 1 1 
1 1 1 1 1 1 1 1 1 1 1 1 1 1 1 0 0 0 237 28 36 237 28 36 237 28 36 0 0 0 1 1 1 1 1 1 1 1 1 1 1 1 1 1 1 
1 1 1 1 1 1 1 1 1 1 1 1 1 1 1 1 1 1 0 0 0 237 28 36 0 0 0 1 1 1 1 1 1 1 1 1 1 1 1 1 1 1 1 1 1 
1 1 1 1 1 1 1 1 1 1 1 1 1 1 1 1 1 1 1 1 1 0 0 0 1 1 1 1 1 1 1 1 1 1 1 1 1 1 1 1 1 1 1 1 1 
1 1 1 1 1 1 1 1 1 1 1 1 1 1 1 1 1 1 1 1 1 1 1 1 1 1 1 1 1 1 1 1 1 1 1 1 1 1 1 1 1 1 1 1 1 
