P3
10 16
255
1 1 1 1 1 1 1 1 1 0 0 0 0 0 0 0 0 0 0 0 0 0 0 0 1 1 1 1 1 1 
1 1 1 1 1 1 1 1 1 0 0 0 232 190 84 255 213 99 255 213 99 232 190 84 0 0 0 1 1 1 
1 1 1 1 1 1 0 0 0 232 190 84 255 213 99 255 213 99 232 190 84 255 213 99 255 213 99 0 0 0 
1 1 1 1 1 1 0 0 0 255 213 99 255 213 99 255 213 99 232 190 84 232 190 84 255 213 99 0 0 0 
1 1 1 0 0 0 255 213 99 255 213 99 232 190 84 232 190 84 232 190 84 232 190 84 232 190 84 0 0 0 
1 1 1 0 0 0 255 213 99 232 190 84 229 170 122 229 170 122 229 170 122 229 170 122 0 0 0 1 1 1 
0 0 0 255 213 99 255 213 99 69 137 156 69 137 156 232 177 135 232 177 135 232 177 135 0 0 0 1 1 1 
0 0 0 255 213 99 0 0 0 69 137 156 69 137 156 69 137 156 69 137 156 0 0 0 1 1 1 1 1 1 
0 0 0 255 213 99 0 0 0 69 137 156 88 167 191 88 167 191 88 167 191 0 0 0 0 0 0 1 1 1 
1 1 1 0 0 0 69 137 156 69 137 156 88 167 191 88 167 191 88 167 191 232 177 135 232 177 135 0 0 0 
1 1 1 0 0 0 69 137 156 232 177 135 232 177 135 88 167 191 47 54 153 232 177 135 232 177 135 0 0 0 
1 1 1 1 1 1 0 0 0 232 177 135 232 177 135 47 54 153 0 0 0 47 54 153 0 0 0 1 1 1 
1 1 1 1 1 1 0 0 0 47 54 153 47 54 153 0 0 0 47 54 153 47 54 153 0 0 0 1 1 1 
1 1 1 0 0 0 47 54 153 47 54 153 0 0 0 0 0 0 47 54 153 156 90 60 0 0 0 1 1 1 
1 1 1 0 0 0 47 54 153 156 90 60 0 0 0 1 1 1 1 1 1 1 1 1 1 1 1 1 1 1 
1 1 1 1 1 1 1 1 1 1 1 1 1 1 1 1 1 1 1 1 1 1 1 1 1 1 1 1 1 1 
